<?xml version="1.0" encoding="utf-8" standalone="no"?>
<!DOCTYPE svg PUBLIC "-//W3C//DTD SVG 1.1//EN"
  "http://www.w3.org/Graphics/SVG/1.1/DTD/svg11.dtd">
<svg xmlns:xlink="http://www.w3.org/1999/xlink" width="1072.46125pt" height="355.785993pt" viewBox="0 0 1072.46125 355.785993" xmlns="http://www.w3.org/2000/svg" version="1.1">
 <metadata>
  <rdf:RDF xmlns:dc="http://purl.org/dc/elements/1.1/" xmlns:cc="http://creativecommons.org/ns#" xmlns:rdf="http://www.w3.org/1999/02/22-rdf-syntax-ns#">
   <cc:Work>
    <dc:type rdf:resource="http://purl.org/dc/dcmitype/StillImage"/>
    <dc:date>2026-03-02T05:17:53.444691</dc:date>
    <dc:format>image/svg+xml</dc:format>
    <dc:creator>
     <cc:Agent>
      <dc:title>Matplotlib v3.7.1, https://matplotlib.org/</dc:title>
     </cc:Agent>
    </dc:creator>
   </cc:Work>
  </rdf:RDF>
 </metadata>
 <defs>
  <style type="text/css">*{stroke-linejoin: round; stroke-linecap: butt}</style>
 </defs>
 <g id="figure_1">
  <g id="patch_1">
   <path d="M 0 355.785993
L 1072.46125 355.785993
L 1072.46125 0
L 0 0
z
" style="fill: #ffffff"/>
  </g>
  <g id="axes_1">
   <g id="patch_2">
    <path d="M 43.78125 281.838093
L 352.46125 281.838093
L 352.46125 51.36
L 43.78125 51.36
z
" style="fill: #ffffff"/>
   </g>
   <g id="patch_3">
    <path d="M 57.812159 281.838093
L 84.357122 281.838093
L 84.357122 80.974617
L 57.812159 80.974617
z
" clip-path="url(#p3a0d749510)" style="fill: #4c72b0"/>
   </g>
   <g id="patch_4">
    <path d="M 133.654911 281.838093
L 160.199874 281.838093
L 160.199874 79.666776
L 133.654911 79.666776
z
" clip-path="url(#p3a0d749510)" style="fill: #4c72b0"/>
   </g>
   <g id="patch_5">
    <path d="M 209.497663 281.838093
L 236.042626 281.838093
L 236.042626 65.885556
L 209.497663 65.885556
z
" clip-path="url(#p3a0d749510)" style="fill: #4c72b0"/>
   </g>
   <g id="patch_6">
    <path d="M 285.340415 281.838093
L 311.885378 281.838093
L 311.885378 88.952991
L 285.340415 88.952991
z
" clip-path="url(#p3a0d749510)" style="fill: #4c72b0"/>
   </g>
   <g id="patch_7">
    <path d="M 84.357122 281.838093
L 110.902085 281.838093
L 110.902085 89.127733
L 84.357122 89.127733
z
" clip-path="url(#p3a0d749510)" style="fill: #dd8452"/>
   </g>
   <g id="patch_8">
    <path d="M 160.199874 281.838093
L 186.744837 281.838093
L 186.744837 103.981235
L 160.199874 103.981235
z
" clip-path="url(#p3a0d749510)" style="fill: #dd8452"/>
   </g>
   <g id="patch_9">
    <path d="M 236.042626 281.838093
L 262.587589 281.838093
L 262.587589 70.780892
L 236.042626 70.780892
z
" clip-path="url(#p3a0d749510)" style="fill: #dd8452"/>
   </g>
   <g id="patch_10">
    <path d="M 311.885378 281.838093
L 338.430341 281.838093
L 338.430341 115.167749
L 311.885378 115.167749
z
" clip-path="url(#p3a0d749510)" style="fill: #dd8452"/>
   </g>
   <g id="matplotlib.axis_1">
    <g id="xtick_1">
     <g id="line2d_1">
      <defs>
       <path id="m0a4443e600" d="M 0 0
L 0 3.5
" style="stroke: #000000; stroke-width: 0.8"/>
      </defs>
      <g>
       <use xlink:href="#m0a4443e600" x="84.357122" y="281.838093" style="stroke: #000000; stroke-width: 0.8"/>
      </g>
     </g>
     <g id="text_1">
      <!-- cbdice -->
      <g transform="translate(64.725186 311.591906) rotate(-45) scale(0.08 -0.08)">
       <defs>
        <path id="DejaVuSans-63" d="M 3122 3366
L 3122 2828
Q 2878 2963 2633 3030
Q 2388 3097 2138 3097
Q 1578 3097 1268 2742
Q 959 2388 959 1747
Q 959 1106 1268 751
Q 1578 397 2138 397
Q 2388 397 2633 464
Q 2878 531 3122 666
L 3122 134
Q 2881 22 2623 -34
Q 2366 -91 2075 -91
Q 1284 -91 818 406
Q 353 903 353 1747
Q 353 2603 823 3093
Q 1294 3584 2113 3584
Q 2378 3584 2631 3529
Q 2884 3475 3122 3366
z
" transform="scale(0.015625)"/>
        <path id="DejaVuSans-62" d="M 3116 1747
Q 3116 2381 2855 2742
Q 2594 3103 2138 3103
Q 1681 3103 1420 2742
Q 1159 2381 1159 1747
Q 1159 1113 1420 752
Q 1681 391 2138 391
Q 2594 391 2855 752
Q 3116 1113 3116 1747
z
M 1159 2969
Q 1341 3281 1617 3432
Q 1894 3584 2278 3584
Q 2916 3584 3314 3078
Q 3713 2572 3713 1747
Q 3713 922 3314 415
Q 2916 -91 2278 -91
Q 1894 -91 1617 61
Q 1341 213 1159 525
L 1159 0
L 581 0
L 581 4863
L 1159 4863
L 1159 2969
z
" transform="scale(0.015625)"/>
        <path id="DejaVuSans-64" d="M 2906 2969
L 2906 4863
L 3481 4863
L 3481 0
L 2906 0
L 2906 525
Q 2725 213 2448 61
Q 2172 -91 1784 -91
Q 1150 -91 751 415
Q 353 922 353 1747
Q 353 2572 751 3078
Q 1150 3584 1784 3584
Q 2172 3584 2448 3432
Q 2725 3281 2906 2969
z
M 947 1747
Q 947 1113 1208 752
Q 1469 391 1925 391
Q 2381 391 2643 752
Q 2906 1113 2906 1747
Q 2906 2381 2643 2742
Q 2381 3103 1925 3103
Q 1469 3103 1208 2742
Q 947 2381 947 1747
z
" transform="scale(0.015625)"/>
        <path id="DejaVuSans-69" d="M 603 3500
L 1178 3500
L 1178 0
L 603 0
L 603 3500
z
M 603 4863
L 1178 4863
L 1178 4134
L 603 4134
L 603 4863
z
" transform="scale(0.015625)"/>
        <path id="DejaVuSans-65" d="M 3597 1894
L 3597 1613
L 953 1613
Q 991 1019 1311 708
Q 1631 397 2203 397
Q 2534 397 2845 478
Q 3156 559 3463 722
L 3463 178
Q 3153 47 2828 -22
Q 2503 -91 2169 -91
Q 1331 -91 842 396
Q 353 884 353 1716
Q 353 2575 817 3079
Q 1281 3584 2069 3584
Q 2775 3584 3186 3129
Q 3597 2675 3597 1894
z
M 3022 2063
Q 3016 2534 2758 2815
Q 2500 3097 2075 3097
Q 1594 3097 1305 2825
Q 1016 2553 972 2059
L 3022 2063
z
" transform="scale(0.015625)"/>
       </defs>
       <use xlink:href="#DejaVuSans-63"/>
       <use xlink:href="#DejaVuSans-62" x="54.980469"/>
       <use xlink:href="#DejaVuSans-64" x="118.457031"/>
       <use xlink:href="#DejaVuSans-69" x="181.933594"/>
       <use xlink:href="#DejaVuSans-63" x="209.716797"/>
       <use xlink:href="#DejaVuSans-65" x="264.697266"/>
      </g>
     </g>
    </g>
    <g id="xtick_2">
     <g id="line2d_2">
      <g>
       <use xlink:href="#m0a4443e600" x="160.199874" y="281.838093" style="stroke: #000000; stroke-width: 0.8"/>
      </g>
     </g>
     <g id="text_2">
      <!-- cbdice_cldice -->
      <g transform="translate(121.146367 330.856146) rotate(-45) scale(0.08 -0.08)">
       <defs>
        <path id="DejaVuSans-5f" d="M 3263 -1063
L 3263 -1509
L -63 -1509
L -63 -1063
L 3263 -1063
z
" transform="scale(0.015625)"/>
        <path id="DejaVuSans-6c" d="M 603 4863
L 1178 4863
L 1178 0
L 603 0
L 603 4863
z
" transform="scale(0.015625)"/>
       </defs>
       <use xlink:href="#DejaVuSans-63"/>
       <use xlink:href="#DejaVuSans-62" x="54.980469"/>
       <use xlink:href="#DejaVuSans-64" x="118.457031"/>
       <use xlink:href="#DejaVuSans-69" x="181.933594"/>
       <use xlink:href="#DejaVuSans-63" x="209.716797"/>
       <use xlink:href="#DejaVuSans-65" x="264.697266"/>
       <use xlink:href="#DejaVuSans-5f" x="326.220703"/>
       <use xlink:href="#DejaVuSans-63" x="376.220703"/>
       <use xlink:href="#DejaVuSans-6c" x="431.201172"/>
       <use xlink:href="#DejaVuSans-64" x="458.984375"/>
       <use xlink:href="#DejaVuSans-69" x="522.460938"/>
       <use xlink:href="#DejaVuSans-63" x="550.244141"/>
       <use xlink:href="#DejaVuSans-65" x="605.224609"/>
      </g>
     </g>
    </g>
    <g id="xtick_3">
     <g id="line2d_3">
      <g>
       <use xlink:href="#m0a4443e600" x="236.042626" y="281.838093" style="stroke: #000000; stroke-width: 0.8"/>
      </g>
     </g>
     <g id="text_3">
      <!-- dice_ce -->
      <g transform="translate(213.535417 314.309847) rotate(-45) scale(0.08 -0.08)">
       <use xlink:href="#DejaVuSans-64"/>
       <use xlink:href="#DejaVuSans-69" x="63.476562"/>
       <use xlink:href="#DejaVuSans-63" x="91.259766"/>
       <use xlink:href="#DejaVuSans-65" x="146.240234"/>
       <use xlink:href="#DejaVuSans-5f" x="207.763672"/>
       <use xlink:href="#DejaVuSans-63" x="257.763672"/>
       <use xlink:href="#DejaVuSans-65" x="312.744141"/>
      </g>
     </g>
    </g>
    <g id="xtick_4">
     <g id="line2d_4">
      <g>
       <use xlink:href="#m0a4443e600" x="311.885378" y="281.838093" style="stroke: #000000; stroke-width: 0.8"/>
      </g>
     </g>
     <g id="text_4">
      <!-- dice_ce_cldice -->
      <g transform="translate(270.113929 333.574088) rotate(-45) scale(0.08 -0.08)">
       <use xlink:href="#DejaVuSans-64"/>
       <use xlink:href="#DejaVuSans-69" x="63.476562"/>
       <use xlink:href="#DejaVuSans-63" x="91.259766"/>
       <use xlink:href="#DejaVuSans-65" x="146.240234"/>
       <use xlink:href="#DejaVuSans-5f" x="207.763672"/>
       <use xlink:href="#DejaVuSans-63" x="257.763672"/>
       <use xlink:href="#DejaVuSans-65" x="312.744141"/>
       <use xlink:href="#DejaVuSans-5f" x="374.267578"/>
       <use xlink:href="#DejaVuSans-63" x="424.267578"/>
       <use xlink:href="#DejaVuSans-6c" x="479.248047"/>
       <use xlink:href="#DejaVuSans-64" x="507.03125"/>
       <use xlink:href="#DejaVuSans-69" x="570.507812"/>
       <use xlink:href="#DejaVuSans-63" x="598.291016"/>
       <use xlink:href="#DejaVuSans-65" x="653.271484"/>
      </g>
     </g>
    </g>
    <g id="text_5">
     <!-- Loss Function -->
     <g transform="translate(164.300156 346.506305) scale(0.1 -0.1)">
      <defs>
       <path id="DejaVuSans-4c" d="M 628 4666
L 1259 4666
L 1259 531
L 3531 531
L 3531 0
L 628 0
L 628 4666
z
" transform="scale(0.015625)"/>
       <path id="DejaVuSans-6f" d="M 1959 3097
Q 1497 3097 1228 2736
Q 959 2375 959 1747
Q 959 1119 1226 758
Q 1494 397 1959 397
Q 2419 397 2687 759
Q 2956 1122 2956 1747
Q 2956 2369 2687 2733
Q 2419 3097 1959 3097
z
M 1959 3584
Q 2709 3584 3137 3096
Q 3566 2609 3566 1747
Q 3566 888 3137 398
Q 2709 -91 1959 -91
Q 1206 -91 779 398
Q 353 888 353 1747
Q 353 2609 779 3096
Q 1206 3584 1959 3584
z
" transform="scale(0.015625)"/>
       <path id="DejaVuSans-73" d="M 2834 3397
L 2834 2853
Q 2591 2978 2328 3040
Q 2066 3103 1784 3103
Q 1356 3103 1142 2972
Q 928 2841 928 2578
Q 928 2378 1081 2264
Q 1234 2150 1697 2047
L 1894 2003
Q 2506 1872 2764 1633
Q 3022 1394 3022 966
Q 3022 478 2636 193
Q 2250 -91 1575 -91
Q 1294 -91 989 -36
Q 684 19 347 128
L 347 722
Q 666 556 975 473
Q 1284 391 1588 391
Q 1994 391 2212 530
Q 2431 669 2431 922
Q 2431 1156 2273 1281
Q 2116 1406 1581 1522
L 1381 1569
Q 847 1681 609 1914
Q 372 2147 372 2553
Q 372 3047 722 3315
Q 1072 3584 1716 3584
Q 2034 3584 2315 3537
Q 2597 3491 2834 3397
z
" transform="scale(0.015625)"/>
       <path id="DejaVuSans-20" transform="scale(0.015625)"/>
       <path id="DejaVuSans-46" d="M 628 4666
L 3309 4666
L 3309 4134
L 1259 4134
L 1259 2759
L 3109 2759
L 3109 2228
L 1259 2228
L 1259 0
L 628 0
L 628 4666
z
" transform="scale(0.015625)"/>
       <path id="DejaVuSans-75" d="M 544 1381
L 544 3500
L 1119 3500
L 1119 1403
Q 1119 906 1312 657
Q 1506 409 1894 409
Q 2359 409 2629 706
Q 2900 1003 2900 1516
L 2900 3500
L 3475 3500
L 3475 0
L 2900 0
L 2900 538
Q 2691 219 2414 64
Q 2138 -91 1772 -91
Q 1169 -91 856 284
Q 544 659 544 1381
z
M 1991 3584
L 1991 3584
z
" transform="scale(0.015625)"/>
       <path id="DejaVuSans-6e" d="M 3513 2113
L 3513 0
L 2938 0
L 2938 2094
Q 2938 2591 2744 2837
Q 2550 3084 2163 3084
Q 1697 3084 1428 2787
Q 1159 2491 1159 1978
L 1159 0
L 581 0
L 581 3500
L 1159 3500
L 1159 2956
Q 1366 3272 1645 3428
Q 1925 3584 2291 3584
Q 2894 3584 3203 3211
Q 3513 2838 3513 2113
z
" transform="scale(0.015625)"/>
       <path id="DejaVuSans-74" d="M 1172 4494
L 1172 3500
L 2356 3500
L 2356 3053
L 1172 3053
L 1172 1153
Q 1172 725 1289 603
Q 1406 481 1766 481
L 2356 481
L 2356 0
L 1766 0
Q 1100 0 847 248
Q 594 497 594 1153
L 594 3053
L 172 3053
L 172 3500
L 594 3500
L 594 4494
L 1172 4494
z
" transform="scale(0.015625)"/>
      </defs>
      <use xlink:href="#DejaVuSans-4c"/>
      <use xlink:href="#DejaVuSans-6f" x="53.962891"/>
      <use xlink:href="#DejaVuSans-73" x="115.144531"/>
      <use xlink:href="#DejaVuSans-73" x="167.244141"/>
      <use xlink:href="#DejaVuSans-20" x="219.34375"/>
      <use xlink:href="#DejaVuSans-46" x="251.130859"/>
      <use xlink:href="#DejaVuSans-75" x="303.150391"/>
      <use xlink:href="#DejaVuSans-6e" x="366.529297"/>
      <use xlink:href="#DejaVuSans-63" x="429.908203"/>
      <use xlink:href="#DejaVuSans-74" x="484.888672"/>
      <use xlink:href="#DejaVuSans-69" x="524.097656"/>
      <use xlink:href="#DejaVuSans-6f" x="551.880859"/>
      <use xlink:href="#DejaVuSans-6e" x="613.0625"/>
     </g>
    </g>
   </g>
   <g id="matplotlib.axis_2">
    <g id="ytick_1">
     <g id="line2d_5">
      <defs>
       <path id="m2aaf0acfdf" d="M 0 0
L -3.5 0
" style="stroke: #000000; stroke-width: 0.8"/>
      </defs>
      <g>
       <use xlink:href="#m2aaf0acfdf" x="43.78125" y="281.838093" style="stroke: #000000; stroke-width: 0.8"/>
      </g>
     </g>
     <g id="text_6">
      <!-- 0.0 -->
      <g transform="translate(20.878125 285.637312) scale(0.1 -0.1)">
       <defs>
        <path id="DejaVuSans-30" d="M 2034 4250
Q 1547 4250 1301 3770
Q 1056 3291 1056 2328
Q 1056 1369 1301 889
Q 1547 409 2034 409
Q 2525 409 2770 889
Q 3016 1369 3016 2328
Q 3016 3291 2770 3770
Q 2525 4250 2034 4250
z
M 2034 4750
Q 2819 4750 3233 4129
Q 3647 3509 3647 2328
Q 3647 1150 3233 529
Q 2819 -91 2034 -91
Q 1250 -91 836 529
Q 422 1150 422 2328
Q 422 3509 836 4129
Q 1250 4750 2034 4750
z
" transform="scale(0.015625)"/>
        <path id="DejaVuSans-2e" d="M 684 794
L 1344 794
L 1344 0
L 684 0
L 684 794
z
" transform="scale(0.015625)"/>
       </defs>
       <use xlink:href="#DejaVuSans-30"/>
       <use xlink:href="#DejaVuSans-2e" x="63.623047"/>
       <use xlink:href="#DejaVuSans-30" x="95.410156"/>
      </g>
     </g>
    </g>
    <g id="ytick_2">
     <g id="line2d_6">
      <g>
       <use xlink:href="#m2aaf0acfdf" x="43.78125" y="255.63666" style="stroke: #000000; stroke-width: 0.8"/>
      </g>
     </g>
     <g id="text_7">
      <!-- 0.1 -->
      <g transform="translate(20.878125 259.435878) scale(0.1 -0.1)">
       <defs>
        <path id="DejaVuSans-31" d="M 794 531
L 1825 531
L 1825 4091
L 703 3866
L 703 4441
L 1819 4666
L 2450 4666
L 2450 531
L 3481 531
L 3481 0
L 794 0
L 794 531
z
" transform="scale(0.015625)"/>
       </defs>
       <use xlink:href="#DejaVuSans-30"/>
       <use xlink:href="#DejaVuSans-2e" x="63.623047"/>
       <use xlink:href="#DejaVuSans-31" x="95.410156"/>
      </g>
     </g>
    </g>
    <g id="ytick_3">
     <g id="line2d_7">
      <g>
       <use xlink:href="#m2aaf0acfdf" x="43.78125" y="229.435226" style="stroke: #000000; stroke-width: 0.8"/>
      </g>
     </g>
     <g id="text_8">
      <!-- 0.2 -->
      <g transform="translate(20.878125 233.234445) scale(0.1 -0.1)">
       <defs>
        <path id="DejaVuSans-32" d="M 1228 531
L 3431 531
L 3431 0
L 469 0
L 469 531
Q 828 903 1448 1529
Q 2069 2156 2228 2338
Q 2531 2678 2651 2914
Q 2772 3150 2772 3378
Q 2772 3750 2511 3984
Q 2250 4219 1831 4219
Q 1534 4219 1204 4116
Q 875 4013 500 3803
L 500 4441
Q 881 4594 1212 4672
Q 1544 4750 1819 4750
Q 2544 4750 2975 4387
Q 3406 4025 3406 3419
Q 3406 3131 3298 2873
Q 3191 2616 2906 2266
Q 2828 2175 2409 1742
Q 1991 1309 1228 531
z
" transform="scale(0.015625)"/>
       </defs>
       <use xlink:href="#DejaVuSans-30"/>
       <use xlink:href="#DejaVuSans-2e" x="63.623047"/>
       <use xlink:href="#DejaVuSans-32" x="95.410156"/>
      </g>
     </g>
    </g>
    <g id="ytick_4">
     <g id="line2d_8">
      <g>
       <use xlink:href="#m2aaf0acfdf" x="43.78125" y="203.233792" style="stroke: #000000; stroke-width: 0.8"/>
      </g>
     </g>
     <g id="text_9">
      <!-- 0.3 -->
      <g transform="translate(20.878125 207.033011) scale(0.1 -0.1)">
       <defs>
        <path id="DejaVuSans-33" d="M 2597 2516
Q 3050 2419 3304 2112
Q 3559 1806 3559 1356
Q 3559 666 3084 287
Q 2609 -91 1734 -91
Q 1441 -91 1130 -33
Q 819 25 488 141
L 488 750
Q 750 597 1062 519
Q 1375 441 1716 441
Q 2309 441 2620 675
Q 2931 909 2931 1356
Q 2931 1769 2642 2001
Q 2353 2234 1838 2234
L 1294 2234
L 1294 2753
L 1863 2753
Q 2328 2753 2575 2939
Q 2822 3125 2822 3475
Q 2822 3834 2567 4026
Q 2313 4219 1838 4219
Q 1578 4219 1281 4162
Q 984 4106 628 3988
L 628 4550
Q 988 4650 1302 4700
Q 1616 4750 1894 4750
Q 2613 4750 3031 4423
Q 3450 4097 3450 3541
Q 3450 3153 3228 2886
Q 3006 2619 2597 2516
z
" transform="scale(0.015625)"/>
       </defs>
       <use xlink:href="#DejaVuSans-30"/>
       <use xlink:href="#DejaVuSans-2e" x="63.623047"/>
       <use xlink:href="#DejaVuSans-33" x="95.410156"/>
      </g>
     </g>
    </g>
    <g id="ytick_5">
     <g id="line2d_9">
      <g>
       <use xlink:href="#m2aaf0acfdf" x="43.78125" y="177.032358" style="stroke: #000000; stroke-width: 0.8"/>
      </g>
     </g>
     <g id="text_10">
      <!-- 0.4 -->
      <g transform="translate(20.878125 180.831577) scale(0.1 -0.1)">
       <defs>
        <path id="DejaVuSans-34" d="M 2419 4116
L 825 1625
L 2419 1625
L 2419 4116
z
M 2253 4666
L 3047 4666
L 3047 1625
L 3713 1625
L 3713 1100
L 3047 1100
L 3047 0
L 2419 0
L 2419 1100
L 313 1100
L 313 1709
L 2253 4666
z
" transform="scale(0.015625)"/>
       </defs>
       <use xlink:href="#DejaVuSans-30"/>
       <use xlink:href="#DejaVuSans-2e" x="63.623047"/>
       <use xlink:href="#DejaVuSans-34" x="95.410156"/>
      </g>
     </g>
    </g>
    <g id="ytick_6">
     <g id="line2d_10">
      <g>
       <use xlink:href="#m2aaf0acfdf" x="43.78125" y="150.830925" style="stroke: #000000; stroke-width: 0.8"/>
      </g>
     </g>
     <g id="text_11">
      <!-- 0.5 -->
      <g transform="translate(20.878125 154.630143) scale(0.1 -0.1)">
       <defs>
        <path id="DejaVuSans-35" d="M 691 4666
L 3169 4666
L 3169 4134
L 1269 4134
L 1269 2991
Q 1406 3038 1543 3061
Q 1681 3084 1819 3084
Q 2600 3084 3056 2656
Q 3513 2228 3513 1497
Q 3513 744 3044 326
Q 2575 -91 1722 -91
Q 1428 -91 1123 -41
Q 819 9 494 109
L 494 744
Q 775 591 1075 516
Q 1375 441 1709 441
Q 2250 441 2565 725
Q 2881 1009 2881 1497
Q 2881 1984 2565 2268
Q 2250 2553 1709 2553
Q 1456 2553 1204 2497
Q 953 2441 691 2322
L 691 4666
z
" transform="scale(0.015625)"/>
       </defs>
       <use xlink:href="#DejaVuSans-30"/>
       <use xlink:href="#DejaVuSans-2e" x="63.623047"/>
       <use xlink:href="#DejaVuSans-35" x="95.410156"/>
      </g>
     </g>
    </g>
    <g id="ytick_7">
     <g id="line2d_11">
      <g>
       <use xlink:href="#m2aaf0acfdf" x="43.78125" y="124.629491" style="stroke: #000000; stroke-width: 0.8"/>
      </g>
     </g>
     <g id="text_12">
      <!-- 0.6 -->
      <g transform="translate(20.878125 128.42871) scale(0.1 -0.1)">
       <defs>
        <path id="DejaVuSans-36" d="M 2113 2584
Q 1688 2584 1439 2293
Q 1191 2003 1191 1497
Q 1191 994 1439 701
Q 1688 409 2113 409
Q 2538 409 2786 701
Q 3034 994 3034 1497
Q 3034 2003 2786 2293
Q 2538 2584 2113 2584
z
M 3366 4563
L 3366 3988
Q 3128 4100 2886 4159
Q 2644 4219 2406 4219
Q 1781 4219 1451 3797
Q 1122 3375 1075 2522
Q 1259 2794 1537 2939
Q 1816 3084 2150 3084
Q 2853 3084 3261 2657
Q 3669 2231 3669 1497
Q 3669 778 3244 343
Q 2819 -91 2113 -91
Q 1303 -91 875 529
Q 447 1150 447 2328
Q 447 3434 972 4092
Q 1497 4750 2381 4750
Q 2619 4750 2861 4703
Q 3103 4656 3366 4563
z
" transform="scale(0.015625)"/>
       </defs>
       <use xlink:href="#DejaVuSans-30"/>
       <use xlink:href="#DejaVuSans-2e" x="63.623047"/>
       <use xlink:href="#DejaVuSans-36" x="95.410156"/>
      </g>
     </g>
    </g>
    <g id="ytick_8">
     <g id="line2d_12">
      <g>
       <use xlink:href="#m2aaf0acfdf" x="43.78125" y="98.428057" style="stroke: #000000; stroke-width: 0.8"/>
      </g>
     </g>
     <g id="text_13">
      <!-- 0.7 -->
      <g transform="translate(20.878125 102.227276) scale(0.1 -0.1)">
       <defs>
        <path id="DejaVuSans-37" d="M 525 4666
L 3525 4666
L 3525 4397
L 1831 0
L 1172 0
L 2766 4134
L 525 4134
L 525 4666
z
" transform="scale(0.015625)"/>
       </defs>
       <use xlink:href="#DejaVuSans-30"/>
       <use xlink:href="#DejaVuSans-2e" x="63.623047"/>
       <use xlink:href="#DejaVuSans-37" x="95.410156"/>
      </g>
     </g>
    </g>
    <g id="ytick_9">
     <g id="line2d_13">
      <g>
       <use xlink:href="#m2aaf0acfdf" x="43.78125" y="72.226623" style="stroke: #000000; stroke-width: 0.8"/>
      </g>
     </g>
     <g id="text_14">
      <!-- 0.8 -->
      <g transform="translate(20.878125 76.025842) scale(0.1 -0.1)">
       <defs>
        <path id="DejaVuSans-38" d="M 2034 2216
Q 1584 2216 1326 1975
Q 1069 1734 1069 1313
Q 1069 891 1326 650
Q 1584 409 2034 409
Q 2484 409 2743 651
Q 3003 894 3003 1313
Q 3003 1734 2745 1975
Q 2488 2216 2034 2216
z
M 1403 2484
Q 997 2584 770 2862
Q 544 3141 544 3541
Q 544 4100 942 4425
Q 1341 4750 2034 4750
Q 2731 4750 3128 4425
Q 3525 4100 3525 3541
Q 3525 3141 3298 2862
Q 3072 2584 2669 2484
Q 3125 2378 3379 2068
Q 3634 1759 3634 1313
Q 3634 634 3220 271
Q 2806 -91 2034 -91
Q 1263 -91 848 271
Q 434 634 434 1313
Q 434 1759 690 2068
Q 947 2378 1403 2484
z
M 1172 3481
Q 1172 3119 1398 2916
Q 1625 2713 2034 2713
Q 2441 2713 2670 2916
Q 2900 3119 2900 3481
Q 2900 3844 2670 4047
Q 2441 4250 2034 4250
Q 1625 4250 1398 4047
Q 1172 3844 1172 3481
z
" transform="scale(0.015625)"/>
       </defs>
       <use xlink:href="#DejaVuSans-30"/>
       <use xlink:href="#DejaVuSans-2e" x="63.623047"/>
       <use xlink:href="#DejaVuSans-38" x="95.410156"/>
      </g>
     </g>
    </g>
    <g id="text_15">
     <!-- Dice (DSC) -->
     <g transform="translate(14.798438 193.67014) rotate(-90) scale(0.1 -0.1)">
      <defs>
       <path id="DejaVuSans-44" d="M 1259 4147
L 1259 519
L 2022 519
Q 2988 519 3436 956
Q 3884 1394 3884 2338
Q 3884 3275 3436 3711
Q 2988 4147 2022 4147
L 1259 4147
z
M 628 4666
L 1925 4666
Q 3281 4666 3915 4102
Q 4550 3538 4550 2338
Q 4550 1131 3912 565
Q 3275 0 1925 0
L 628 0
L 628 4666
z
" transform="scale(0.015625)"/>
       <path id="DejaVuSans-28" d="M 1984 4856
Q 1566 4138 1362 3434
Q 1159 2731 1159 2009
Q 1159 1288 1364 580
Q 1569 -128 1984 -844
L 1484 -844
Q 1016 -109 783 600
Q 550 1309 550 2009
Q 550 2706 781 3412
Q 1013 4119 1484 4856
L 1984 4856
z
" transform="scale(0.015625)"/>
       <path id="DejaVuSans-53" d="M 3425 4513
L 3425 3897
Q 3066 4069 2747 4153
Q 2428 4238 2131 4238
Q 1616 4238 1336 4038
Q 1056 3838 1056 3469
Q 1056 3159 1242 3001
Q 1428 2844 1947 2747
L 2328 2669
Q 3034 2534 3370 2195
Q 3706 1856 3706 1288
Q 3706 609 3251 259
Q 2797 -91 1919 -91
Q 1588 -91 1214 -16
Q 841 59 441 206
L 441 856
Q 825 641 1194 531
Q 1563 422 1919 422
Q 2459 422 2753 634
Q 3047 847 3047 1241
Q 3047 1584 2836 1778
Q 2625 1972 2144 2069
L 1759 2144
Q 1053 2284 737 2584
Q 422 2884 422 3419
Q 422 4038 858 4394
Q 1294 4750 2059 4750
Q 2388 4750 2728 4690
Q 3069 4631 3425 4513
z
" transform="scale(0.015625)"/>
       <path id="DejaVuSans-43" d="M 4122 4306
L 4122 3641
Q 3803 3938 3442 4084
Q 3081 4231 2675 4231
Q 1875 4231 1450 3742
Q 1025 3253 1025 2328
Q 1025 1406 1450 917
Q 1875 428 2675 428
Q 3081 428 3442 575
Q 3803 722 4122 1019
L 4122 359
Q 3791 134 3420 21
Q 3050 -91 2638 -91
Q 1578 -91 968 557
Q 359 1206 359 2328
Q 359 3453 968 4101
Q 1578 4750 2638 4750
Q 3056 4750 3426 4639
Q 3797 4528 4122 4306
z
" transform="scale(0.015625)"/>
       <path id="DejaVuSans-29" d="M 513 4856
L 1013 4856
Q 1481 4119 1714 3412
Q 1947 2706 1947 2009
Q 1947 1309 1714 600
Q 1481 -109 1013 -844
L 513 -844
Q 928 -128 1133 580
Q 1338 1288 1338 2009
Q 1338 2731 1133 3434
Q 928 4138 513 4856
z
" transform="scale(0.015625)"/>
      </defs>
      <use xlink:href="#DejaVuSans-44"/>
      <use xlink:href="#DejaVuSans-69" x="77.001953"/>
      <use xlink:href="#DejaVuSans-63" x="104.785156"/>
      <use xlink:href="#DejaVuSans-65" x="159.765625"/>
      <use xlink:href="#DejaVuSans-20" x="221.289062"/>
      <use xlink:href="#DejaVuSans-28" x="253.076172"/>
      <use xlink:href="#DejaVuSans-44" x="292.089844"/>
      <use xlink:href="#DejaVuSans-53" x="369.091797"/>
      <use xlink:href="#DejaVuSans-43" x="432.568359"/>
      <use xlink:href="#DejaVuSans-29" x="502.392578"/>
     </g>
    </g>
   </g>
   <g id="LineCollection_1">
    <path d="M 71.084641 87.064763
L 71.084641 74.884471
" clip-path="url(#p3a0d749510)" style="fill: none; stroke: #000000; stroke-width: 1.5"/>
    <path d="M 146.927393 83.901267
L 146.927393 75.432286
" clip-path="url(#p3a0d749510)" style="fill: none; stroke: #000000; stroke-width: 1.5"/>
    <path d="M 222.770144 69.435965
L 222.770144 62.335147
" clip-path="url(#p3a0d749510)" style="fill: none; stroke: #000000; stroke-width: 1.5"/>
    <path d="M 298.612896 93.174217
L 298.612896 84.731766
" clip-path="url(#p3a0d749510)" style="fill: none; stroke: #000000; stroke-width: 1.5"/>
   </g>
   <g id="line2d_14">
    <defs>
     <path id="mf7d6e18672" d="M 3 0
L -3 -0
" style="stroke: #000000"/>
    </defs>
    <g clip-path="url(#p3a0d749510)">
     <use xlink:href="#mf7d6e18672" x="71.084641" y="87.064763" style="stroke: #000000"/>
     <use xlink:href="#mf7d6e18672" x="146.927393" y="83.901267" style="stroke: #000000"/>
     <use xlink:href="#mf7d6e18672" x="222.770144" y="69.435965" style="stroke: #000000"/>
     <use xlink:href="#mf7d6e18672" x="298.612896" y="93.174217" style="stroke: #000000"/>
    </g>
   </g>
   <g id="line2d_15">
    <g clip-path="url(#p3a0d749510)">
     <use xlink:href="#mf7d6e18672" x="71.084641" y="74.884471" style="stroke: #000000"/>
     <use xlink:href="#mf7d6e18672" x="146.927393" y="75.432286" style="stroke: #000000"/>
     <use xlink:href="#mf7d6e18672" x="222.770144" y="62.335147" style="stroke: #000000"/>
     <use xlink:href="#mf7d6e18672" x="298.612896" y="84.731766" style="stroke: #000000"/>
    </g>
   </g>
   <g id="LineCollection_2">
    <path d="M 97.629604 97.346019
L 97.629604 80.909447
" clip-path="url(#p3a0d749510)" style="fill: none; stroke: #000000; stroke-width: 1.5"/>
    <path d="M 173.472356 110.745096
L 173.472356 97.217373
" clip-path="url(#p3a0d749510)" style="fill: none; stroke: #000000; stroke-width: 1.5"/>
    <path d="M 249.315107 74.123174
L 249.315107 67.43861
" clip-path="url(#p3a0d749510)" style="fill: none; stroke: #000000; stroke-width: 1.5"/>
    <path d="M 325.157859 123.082284
L 325.157859 107.253214
" clip-path="url(#p3a0d749510)" style="fill: none; stroke: #000000; stroke-width: 1.5"/>
   </g>
   <g id="line2d_16">
    <g clip-path="url(#p3a0d749510)">
     <use xlink:href="#mf7d6e18672" x="97.629604" y="97.346019" style="stroke: #000000"/>
     <use xlink:href="#mf7d6e18672" x="173.472356" y="110.745096" style="stroke: #000000"/>
     <use xlink:href="#mf7d6e18672" x="249.315107" y="74.123174" style="stroke: #000000"/>
     <use xlink:href="#mf7d6e18672" x="325.157859" y="123.082284" style="stroke: #000000"/>
    </g>
   </g>
   <g id="line2d_17">
    <g clip-path="url(#p3a0d749510)">
     <use xlink:href="#mf7d6e18672" x="97.629604" y="80.909447" style="stroke: #000000"/>
     <use xlink:href="#mf7d6e18672" x="173.472356" y="97.217373" style="stroke: #000000"/>
     <use xlink:href="#mf7d6e18672" x="249.315107" y="67.43861" style="stroke: #000000"/>
     <use xlink:href="#mf7d6e18672" x="325.157859" y="107.253214" style="stroke: #000000"/>
    </g>
   </g>
   <g id="patch_11">
    <path d="M 43.78125 281.838093
L 43.78125 51.36
" style="fill: none; stroke: #000000; stroke-width: 0.8; stroke-linejoin: miter; stroke-linecap: square"/>
   </g>
   <g id="patch_12">
    <path d="M 352.46125 281.838093
L 352.46125 51.36
" style="fill: none; stroke: #000000; stroke-width: 0.8; stroke-linejoin: miter; stroke-linecap: square"/>
   </g>
   <g id="patch_13">
    <path d="M 43.78125 281.838093
L 352.46125 281.838093
" style="fill: none; stroke: #000000; stroke-width: 0.8; stroke-linejoin: miter; stroke-linecap: square"/>
   </g>
   <g id="patch_14">
    <path d="M 43.78125 51.36
L 352.46125 51.36
" style="fill: none; stroke: #000000; stroke-width: 0.8; stroke-linejoin: miter; stroke-linecap: square"/>
   </g>
   <g id="text_16">
    <!-- Dice (DSC) -->
    <g transform="translate(165.635938 45.36) scale(0.12 -0.12)">
     <use xlink:href="#DejaVuSans-44"/>
     <use xlink:href="#DejaVuSans-69" x="77.001953"/>
     <use xlink:href="#DejaVuSans-63" x="104.785156"/>
     <use xlink:href="#DejaVuSans-65" x="159.765625"/>
     <use xlink:href="#DejaVuSans-20" x="221.289062"/>
     <use xlink:href="#DejaVuSans-28" x="253.076172"/>
     <use xlink:href="#DejaVuSans-44" x="292.089844"/>
     <use xlink:href="#DejaVuSans-53" x="369.091797"/>
     <use xlink:href="#DejaVuSans-43" x="432.568359"/>
     <use xlink:href="#DejaVuSans-29" x="502.392578"/>
    </g>
   </g>
   <g id="legend_1">
    <g id="patch_15">
     <path d="M 50.78125 276.838093
L 133.348438 276.838093
Q 135.348438 276.838093 135.348438 274.838093
L 135.348438 246.481843
Q 135.348438 244.481843 133.348438 244.481843
L 50.78125 244.481843
Q 48.78125 244.481843 48.78125 246.481843
L 48.78125 274.838093
Q 48.78125 276.838093 50.78125 276.838093
z
" style="fill: #ffffff; opacity: 0.8; stroke: #cccccc; stroke-linejoin: miter"/>
    </g>
    <g id="patch_16">
     <path d="M 52.78125 256.080281
L 72.78125 256.080281
L 72.78125 249.080281
L 52.78125 249.080281
z
" style="fill: #4c72b0"/>
    </g>
    <g id="text_17">
     <!-- Full-width -->
     <g transform="translate(80.78125 256.080281) scale(0.1 -0.1)">
      <defs>
       <path id="DejaVuSans-2d" d="M 313 2009
L 1997 2009
L 1997 1497
L 313 1497
L 313 2009
z
" transform="scale(0.015625)"/>
       <path id="DejaVuSans-77" d="M 269 3500
L 844 3500
L 1563 769
L 2278 3500
L 2956 3500
L 3675 769
L 4391 3500
L 4966 3500
L 4050 0
L 3372 0
L 2619 2869
L 1863 0
L 1184 0
L 269 3500
z
" transform="scale(0.015625)"/>
       <path id="DejaVuSans-68" d="M 3513 2113
L 3513 0
L 2938 0
L 2938 2094
Q 2938 2591 2744 2837
Q 2550 3084 2163 3084
Q 1697 3084 1428 2787
Q 1159 2491 1159 1978
L 1159 0
L 581 0
L 581 4863
L 1159 4863
L 1159 2956
Q 1366 3272 1645 3428
Q 1925 3584 2291 3584
Q 2894 3584 3203 3211
Q 3513 2838 3513 2113
z
" transform="scale(0.015625)"/>
      </defs>
      <use xlink:href="#DejaVuSans-46"/>
      <use xlink:href="#DejaVuSans-75" x="52.019531"/>
      <use xlink:href="#DejaVuSans-6c" x="115.398438"/>
      <use xlink:href="#DejaVuSans-6c" x="143.181641"/>
      <use xlink:href="#DejaVuSans-2d" x="170.964844"/>
      <use xlink:href="#DejaVuSans-77" x="207.048828"/>
      <use xlink:href="#DejaVuSans-69" x="288.835938"/>
      <use xlink:href="#DejaVuSans-64" x="316.619141"/>
      <use xlink:href="#DejaVuSans-74" x="380.095703"/>
      <use xlink:href="#DejaVuSans-68" x="419.304688"/>
     </g>
    </g>
    <g id="patch_17">
     <path d="M 52.78125 270.758406
L 72.78125 270.758406
L 72.78125 263.758406
L 52.78125 263.758406
z
" style="fill: #dd8452"/>
    </g>
    <g id="text_18">
     <!-- Half-width -->
     <g transform="translate(80.78125 270.758406) scale(0.1 -0.1)">
      <defs>
       <path id="DejaVuSans-48" d="M 628 4666
L 1259 4666
L 1259 2753
L 3553 2753
L 3553 4666
L 4184 4666
L 4184 0
L 3553 0
L 3553 2222
L 1259 2222
L 1259 0
L 628 0
L 628 4666
z
" transform="scale(0.015625)"/>
       <path id="DejaVuSans-61" d="M 2194 1759
Q 1497 1759 1228 1600
Q 959 1441 959 1056
Q 959 750 1161 570
Q 1363 391 1709 391
Q 2188 391 2477 730
Q 2766 1069 2766 1631
L 2766 1759
L 2194 1759
z
M 3341 1997
L 3341 0
L 2766 0
L 2766 531
Q 2569 213 2275 61
Q 1981 -91 1556 -91
Q 1019 -91 701 211
Q 384 513 384 1019
Q 384 1609 779 1909
Q 1175 2209 1959 2209
L 2766 2209
L 2766 2266
Q 2766 2663 2505 2880
Q 2244 3097 1772 3097
Q 1472 3097 1187 3025
Q 903 2953 641 2809
L 641 3341
Q 956 3463 1253 3523
Q 1550 3584 1831 3584
Q 2591 3584 2966 3190
Q 3341 2797 3341 1997
z
" transform="scale(0.015625)"/>
       <path id="DejaVuSans-66" d="M 2375 4863
L 2375 4384
L 1825 4384
Q 1516 4384 1395 4259
Q 1275 4134 1275 3809
L 1275 3500
L 2222 3500
L 2222 3053
L 1275 3053
L 1275 0
L 697 0
L 697 3053
L 147 3053
L 147 3500
L 697 3500
L 697 3744
Q 697 4328 969 4595
Q 1241 4863 1831 4863
L 2375 4863
z
" transform="scale(0.015625)"/>
      </defs>
      <use xlink:href="#DejaVuSans-48"/>
      <use xlink:href="#DejaVuSans-61" x="75.195312"/>
      <use xlink:href="#DejaVuSans-6c" x="136.474609"/>
      <use xlink:href="#DejaVuSans-66" x="164.257812"/>
      <use xlink:href="#DejaVuSans-2d" x="193.962891"/>
      <use xlink:href="#DejaVuSans-77" x="230.046875"/>
      <use xlink:href="#DejaVuSans-69" x="311.833984"/>
      <use xlink:href="#DejaVuSans-64" x="339.617188"/>
      <use xlink:href="#DejaVuSans-74" x="403.09375"/>
      <use xlink:href="#DejaVuSans-68" x="442.302734"/>
     </g>
    </g>
   </g>
  </g>
  <g id="axes_2">
   <g id="patch_18">
    <path d="M 400.18125 281.838093
L 708.86125 281.838093
L 708.86125 51.36
L 400.18125 51.36
z
" style="fill: #ffffff"/>
   </g>
   <g id="patch_19">
    <path d="M 414.212159 281.838093
L 440.757122 281.838093
L 440.757122 89.799906
L 414.212159 89.799906
z
" clip-path="url(#p497facd5bc)" style="fill: #4c72b0"/>
   </g>
   <g id="patch_20">
    <path d="M 490.054911 281.838093
L 516.599874 281.838093
L 516.599874 64.1478
L 490.054911 64.1478
z
" clip-path="url(#p497facd5bc)" style="fill: #4c72b0"/>
   </g>
   <g id="patch_21">
    <path d="M 565.897663 281.838093
L 592.442626 281.838093
L 592.442626 81.986023
L 565.897663 81.986023
z
" clip-path="url(#p497facd5bc)" style="fill: #4c72b0"/>
   </g>
   <g id="patch_22">
    <path d="M 641.740415 281.838093
L 668.285378 281.838093
L 668.285378 64.482761
L 641.740415 64.482761
z
" clip-path="url(#p497facd5bc)" style="fill: #4c72b0"/>
   </g>
   <g id="patch_23">
    <path d="M 440.757122 281.838093
L 467.302085 281.838093
L 467.302085 97.161873
L 440.757122 97.161873
z
" clip-path="url(#p497facd5bc)" style="fill: #dd8452"/>
   </g>
   <g id="patch_24">
    <path d="M 516.599874 281.838093
L 543.144837 281.838093
L 543.144837 68.532963
L 516.599874 68.532963
z
" clip-path="url(#p497facd5bc)" style="fill: #dd8452"/>
   </g>
   <g id="patch_25">
    <path d="M 592.442626 281.838093
L 618.987589 281.838093
L 618.987589 95.784956
L 592.442626 95.784956
z
" clip-path="url(#p497facd5bc)" style="fill: #dd8452"/>
   </g>
   <g id="patch_26">
    <path d="M 668.285378 281.838093
L 694.830341 281.838093
L 694.830341 66.789557
L 668.285378 66.789557
z
" clip-path="url(#p497facd5bc)" style="fill: #dd8452"/>
   </g>
   <g id="matplotlib.axis_3">
    <g id="xtick_5">
     <g id="line2d_18">
      <g>
       <use xlink:href="#m0a4443e600" x="440.757122" y="281.838093" style="stroke: #000000; stroke-width: 0.8"/>
      </g>
     </g>
     <g id="text_19">
      <!-- cbdice -->
      <g transform="translate(421.125186 311.591906) rotate(-45) scale(0.08 -0.08)">
       <use xlink:href="#DejaVuSans-63"/>
       <use xlink:href="#DejaVuSans-62" x="54.980469"/>
       <use xlink:href="#DejaVuSans-64" x="118.457031"/>
       <use xlink:href="#DejaVuSans-69" x="181.933594"/>
       <use xlink:href="#DejaVuSans-63" x="209.716797"/>
       <use xlink:href="#DejaVuSans-65" x="264.697266"/>
      </g>
     </g>
    </g>
    <g id="xtick_6">
     <g id="line2d_19">
      <g>
       <use xlink:href="#m0a4443e600" x="516.599874" y="281.838093" style="stroke: #000000; stroke-width: 0.8"/>
      </g>
     </g>
     <g id="text_20">
      <!-- cbdice_cldice -->
      <g transform="translate(477.546367 330.856146) rotate(-45) scale(0.08 -0.08)">
       <use xlink:href="#DejaVuSans-63"/>
       <use xlink:href="#DejaVuSans-62" x="54.980469"/>
       <use xlink:href="#DejaVuSans-64" x="118.457031"/>
       <use xlink:href="#DejaVuSans-69" x="181.933594"/>
       <use xlink:href="#DejaVuSans-63" x="209.716797"/>
       <use xlink:href="#DejaVuSans-65" x="264.697266"/>
       <use xlink:href="#DejaVuSans-5f" x="326.220703"/>
       <use xlink:href="#DejaVuSans-63" x="376.220703"/>
       <use xlink:href="#DejaVuSans-6c" x="431.201172"/>
       <use xlink:href="#DejaVuSans-64" x="458.984375"/>
       <use xlink:href="#DejaVuSans-69" x="522.460938"/>
       <use xlink:href="#DejaVuSans-63" x="550.244141"/>
       <use xlink:href="#DejaVuSans-65" x="605.224609"/>
      </g>
     </g>
    </g>
    <g id="xtick_7">
     <g id="line2d_20">
      <g>
       <use xlink:href="#m0a4443e600" x="592.442626" y="281.838093" style="stroke: #000000; stroke-width: 0.8"/>
      </g>
     </g>
     <g id="text_21">
      <!-- dice_ce -->
      <g transform="translate(569.935417 314.309847) rotate(-45) scale(0.08 -0.08)">
       <use xlink:href="#DejaVuSans-64"/>
       <use xlink:href="#DejaVuSans-69" x="63.476562"/>
       <use xlink:href="#DejaVuSans-63" x="91.259766"/>
       <use xlink:href="#DejaVuSans-65" x="146.240234"/>
       <use xlink:href="#DejaVuSans-5f" x="207.763672"/>
       <use xlink:href="#DejaVuSans-63" x="257.763672"/>
       <use xlink:href="#DejaVuSans-65" x="312.744141"/>
      </g>
     </g>
    </g>
    <g id="xtick_8">
     <g id="line2d_21">
      <g>
       <use xlink:href="#m0a4443e600" x="668.285378" y="281.838093" style="stroke: #000000; stroke-width: 0.8"/>
      </g>
     </g>
     <g id="text_22">
      <!-- dice_ce_cldice -->
      <g transform="translate(626.513929 333.574088) rotate(-45) scale(0.08 -0.08)">
       <use xlink:href="#DejaVuSans-64"/>
       <use xlink:href="#DejaVuSans-69" x="63.476562"/>
       <use xlink:href="#DejaVuSans-63" x="91.259766"/>
       <use xlink:href="#DejaVuSans-65" x="146.240234"/>
       <use xlink:href="#DejaVuSans-5f" x="207.763672"/>
       <use xlink:href="#DejaVuSans-63" x="257.763672"/>
       <use xlink:href="#DejaVuSans-65" x="312.744141"/>
       <use xlink:href="#DejaVuSans-5f" x="374.267578"/>
       <use xlink:href="#DejaVuSans-63" x="424.267578"/>
       <use xlink:href="#DejaVuSans-6c" x="479.248047"/>
       <use xlink:href="#DejaVuSans-64" x="507.03125"/>
       <use xlink:href="#DejaVuSans-69" x="570.507812"/>
       <use xlink:href="#DejaVuSans-63" x="598.291016"/>
       <use xlink:href="#DejaVuSans-65" x="653.271484"/>
      </g>
     </g>
    </g>
    <g id="text_23">
     <!-- Loss Function -->
     <g transform="translate(520.700156 346.506305) scale(0.1 -0.1)">
      <use xlink:href="#DejaVuSans-4c"/>
      <use xlink:href="#DejaVuSans-6f" x="53.962891"/>
      <use xlink:href="#DejaVuSans-73" x="115.144531"/>
      <use xlink:href="#DejaVuSans-73" x="167.244141"/>
      <use xlink:href="#DejaVuSans-20" x="219.34375"/>
      <use xlink:href="#DejaVuSans-46" x="251.130859"/>
      <use xlink:href="#DejaVuSans-75" x="303.150391"/>
      <use xlink:href="#DejaVuSans-6e" x="366.529297"/>
      <use xlink:href="#DejaVuSans-63" x="429.908203"/>
      <use xlink:href="#DejaVuSans-74" x="484.888672"/>
      <use xlink:href="#DejaVuSans-69" x="524.097656"/>
      <use xlink:href="#DejaVuSans-6f" x="551.880859"/>
      <use xlink:href="#DejaVuSans-6e" x="613.0625"/>
     </g>
    </g>
   </g>
   <g id="matplotlib.axis_4">
    <g id="ytick_10">
     <g id="line2d_22">
      <g>
       <use xlink:href="#m2aaf0acfdf" x="400.18125" y="281.838093" style="stroke: #000000; stroke-width: 0.8"/>
      </g>
     </g>
     <g id="text_24">
      <!-- 0.0 -->
      <g transform="translate(377.278125 285.637312) scale(0.1 -0.1)">
       <use xlink:href="#DejaVuSans-30"/>
       <use xlink:href="#DejaVuSans-2e" x="63.623047"/>
       <use xlink:href="#DejaVuSans-30" x="95.410156"/>
      </g>
     </g>
    </g>
    <g id="ytick_11">
     <g id="line2d_23">
      <g>
       <use xlink:href="#m2aaf0acfdf" x="400.18125" y="233.781383" style="stroke: #000000; stroke-width: 0.8"/>
      </g>
     </g>
     <g id="text_25">
      <!-- 0.2 -->
      <g transform="translate(377.278125 237.580602) scale(0.1 -0.1)">
       <use xlink:href="#DejaVuSans-30"/>
       <use xlink:href="#DejaVuSans-2e" x="63.623047"/>
       <use xlink:href="#DejaVuSans-32" x="95.410156"/>
      </g>
     </g>
    </g>
    <g id="ytick_12">
     <g id="line2d_24">
      <g>
       <use xlink:href="#m2aaf0acfdf" x="400.18125" y="185.724674" style="stroke: #000000; stroke-width: 0.8"/>
      </g>
     </g>
     <g id="text_26">
      <!-- 0.4 -->
      <g transform="translate(377.278125 189.523892) scale(0.1 -0.1)">
       <use xlink:href="#DejaVuSans-30"/>
       <use xlink:href="#DejaVuSans-2e" x="63.623047"/>
       <use xlink:href="#DejaVuSans-34" x="95.410156"/>
      </g>
     </g>
    </g>
    <g id="ytick_13">
     <g id="line2d_25">
      <g>
       <use xlink:href="#m2aaf0acfdf" x="400.18125" y="137.667964" style="stroke: #000000; stroke-width: 0.8"/>
      </g>
     </g>
     <g id="text_27">
      <!-- 0.6 -->
      <g transform="translate(377.278125 141.467182) scale(0.1 -0.1)">
       <use xlink:href="#DejaVuSans-30"/>
       <use xlink:href="#DejaVuSans-2e" x="63.623047"/>
       <use xlink:href="#DejaVuSans-36" x="95.410156"/>
      </g>
     </g>
    </g>
    <g id="ytick_14">
     <g id="line2d_26">
      <g>
       <use xlink:href="#m2aaf0acfdf" x="400.18125" y="89.611254" style="stroke: #000000; stroke-width: 0.8"/>
      </g>
     </g>
     <g id="text_28">
      <!-- 0.8 -->
      <g transform="translate(377.278125 93.410472) scale(0.1 -0.1)">
       <use xlink:href="#DejaVuSans-30"/>
       <use xlink:href="#DejaVuSans-2e" x="63.623047"/>
       <use xlink:href="#DejaVuSans-38" x="95.410156"/>
      </g>
     </g>
    </g>
    <g id="text_29">
     <!-- Centreline DSC -->
     <g transform="translate(371.198438 204.443578) rotate(-90) scale(0.1 -0.1)">
      <defs>
       <path id="DejaVuSans-72" d="M 2631 2963
Q 2534 3019 2420 3045
Q 2306 3072 2169 3072
Q 1681 3072 1420 2755
Q 1159 2438 1159 1844
L 1159 0
L 581 0
L 581 3500
L 1159 3500
L 1159 2956
Q 1341 3275 1631 3429
Q 1922 3584 2338 3584
Q 2397 3584 2469 3576
Q 2541 3569 2628 3553
L 2631 2963
z
" transform="scale(0.015625)"/>
      </defs>
      <use xlink:href="#DejaVuSans-43"/>
      <use xlink:href="#DejaVuSans-65" x="69.824219"/>
      <use xlink:href="#DejaVuSans-6e" x="131.347656"/>
      <use xlink:href="#DejaVuSans-74" x="194.726562"/>
      <use xlink:href="#DejaVuSans-72" x="233.935547"/>
      <use xlink:href="#DejaVuSans-65" x="272.798828"/>
      <use xlink:href="#DejaVuSans-6c" x="334.322266"/>
      <use xlink:href="#DejaVuSans-69" x="362.105469"/>
      <use xlink:href="#DejaVuSans-6e" x="389.888672"/>
      <use xlink:href="#DejaVuSans-65" x="453.267578"/>
      <use xlink:href="#DejaVuSans-20" x="514.791016"/>
      <use xlink:href="#DejaVuSans-44" x="546.578125"/>
      <use xlink:href="#DejaVuSans-53" x="623.580078"/>
      <use xlink:href="#DejaVuSans-43" x="687.056641"/>
     </g>
    </g>
   </g>
   <g id="LineCollection_3">
    <path d="M 427.484641 94.65166
L 427.484641 84.948152
" clip-path="url(#p497facd5bc)" style="fill: none; stroke: #000000; stroke-width: 1.5"/>
    <path d="M 503.327393 65.960453
L 503.327393 62.335147
" clip-path="url(#p497facd5bc)" style="fill: none; stroke: #000000; stroke-width: 1.5"/>
    <path d="M 579.170144 86.501222
L 579.170144 77.470824
" clip-path="url(#p497facd5bc)" style="fill: none; stroke: #000000; stroke-width: 1.5"/>
    <path d="M 655.012896 65.214738
L 655.012896 63.750784
" clip-path="url(#p497facd5bc)" style="fill: none; stroke: #000000; stroke-width: 1.5"/>
   </g>
   <g id="line2d_27">
    <g clip-path="url(#p497facd5bc)">
     <use xlink:href="#mf7d6e18672" x="427.484641" y="94.65166" style="stroke: #000000"/>
     <use xlink:href="#mf7d6e18672" x="503.327393" y="65.960453" style="stroke: #000000"/>
     <use xlink:href="#mf7d6e18672" x="579.170144" y="86.501222" style="stroke: #000000"/>
     <use xlink:href="#mf7d6e18672" x="655.012896" y="65.214738" style="stroke: #000000"/>
    </g>
   </g>
   <g id="line2d_28">
    <g clip-path="url(#p497facd5bc)">
     <use xlink:href="#mf7d6e18672" x="427.484641" y="84.948152" style="stroke: #000000"/>
     <use xlink:href="#mf7d6e18672" x="503.327393" y="62.335147" style="stroke: #000000"/>
     <use xlink:href="#mf7d6e18672" x="579.170144" y="77.470824" style="stroke: #000000"/>
     <use xlink:href="#mf7d6e18672" x="655.012896" y="63.750784" style="stroke: #000000"/>
    </g>
   </g>
   <g id="LineCollection_4">
    <path d="M 454.029604 101.183177
L 454.029604 93.14057
" clip-path="url(#p497facd5bc)" style="fill: none; stroke: #000000; stroke-width: 1.5"/>
    <path d="M 529.872356 69.752683
L 529.872356 67.313243
" clip-path="url(#p497facd5bc)" style="fill: none; stroke: #000000; stroke-width: 1.5"/>
    <path d="M 605.715107 103.004252
L 605.715107 88.565661
" clip-path="url(#p497facd5bc)" style="fill: none; stroke: #000000; stroke-width: 1.5"/>
    <path d="M 681.557859 67.474486
L 681.557859 66.104627
" clip-path="url(#p497facd5bc)" style="fill: none; stroke: #000000; stroke-width: 1.5"/>
   </g>
   <g id="line2d_29">
    <g clip-path="url(#p497facd5bc)">
     <use xlink:href="#mf7d6e18672" x="454.029604" y="101.183177" style="stroke: #000000"/>
     <use xlink:href="#mf7d6e18672" x="529.872356" y="69.752683" style="stroke: #000000"/>
     <use xlink:href="#mf7d6e18672" x="605.715107" y="103.004252" style="stroke: #000000"/>
     <use xlink:href="#mf7d6e18672" x="681.557859" y="67.474486" style="stroke: #000000"/>
    </g>
   </g>
   <g id="line2d_30">
    <g clip-path="url(#p497facd5bc)">
     <use xlink:href="#mf7d6e18672" x="454.029604" y="93.14057" style="stroke: #000000"/>
     <use xlink:href="#mf7d6e18672" x="529.872356" y="67.313243" style="stroke: #000000"/>
     <use xlink:href="#mf7d6e18672" x="605.715107" y="88.565661" style="stroke: #000000"/>
     <use xlink:href="#mf7d6e18672" x="681.557859" y="66.104627" style="stroke: #000000"/>
    </g>
   </g>
   <g id="patch_27">
    <path d="M 400.18125 281.838093
L 400.18125 51.36
" style="fill: none; stroke: #000000; stroke-width: 0.8; stroke-linejoin: miter; stroke-linecap: square"/>
   </g>
   <g id="patch_28">
    <path d="M 708.86125 281.838093
L 708.86125 51.36
" style="fill: none; stroke: #000000; stroke-width: 0.8; stroke-linejoin: miter; stroke-linecap: square"/>
   </g>
   <g id="patch_29">
    <path d="M 400.18125 281.838093
L 708.86125 281.838093
" style="fill: none; stroke: #000000; stroke-width: 0.8; stroke-linejoin: miter; stroke-linecap: square"/>
   </g>
   <g id="patch_30">
    <path d="M 400.18125 51.36
L 708.86125 51.36
" style="fill: none; stroke: #000000; stroke-width: 0.8; stroke-linejoin: miter; stroke-linecap: square"/>
   </g>
   <g id="text_30">
    <!-- Centreline DSC -->
    <g transform="translate(509.107813 45.36) scale(0.12 -0.12)">
     <use xlink:href="#DejaVuSans-43"/>
     <use xlink:href="#DejaVuSans-65" x="69.824219"/>
     <use xlink:href="#DejaVuSans-6e" x="131.347656"/>
     <use xlink:href="#DejaVuSans-74" x="194.726562"/>
     <use xlink:href="#DejaVuSans-72" x="233.935547"/>
     <use xlink:href="#DejaVuSans-65" x="272.798828"/>
     <use xlink:href="#DejaVuSans-6c" x="334.322266"/>
     <use xlink:href="#DejaVuSans-69" x="362.105469"/>
     <use xlink:href="#DejaVuSans-6e" x="389.888672"/>
     <use xlink:href="#DejaVuSans-65" x="453.267578"/>
     <use xlink:href="#DejaVuSans-20" x="514.791016"/>
     <use xlink:href="#DejaVuSans-44" x="546.578125"/>
     <use xlink:href="#DejaVuSans-53" x="623.580078"/>
     <use xlink:href="#DejaVuSans-43" x="687.056641"/>
    </g>
   </g>
   <g id="legend_2">
    <g id="patch_31">
     <path d="M 407.18125 276.838093
L 489.748438 276.838093
Q 491.748438 276.838093 491.748438 274.838093
L 491.748438 246.481843
Q 491.748438 244.481843 489.748438 244.481843
L 407.18125 244.481843
Q 405.18125 244.481843 405.18125 246.481843
L 405.18125 274.838093
Q 405.18125 276.838093 407.18125 276.838093
z
" style="fill: #ffffff; opacity: 0.8; stroke: #cccccc; stroke-linejoin: miter"/>
    </g>
    <g id="patch_32">
     <path d="M 409.18125 256.080281
L 429.18125 256.080281
L 429.18125 249.080281
L 409.18125 249.080281
z
" style="fill: #4c72b0"/>
    </g>
    <g id="text_31">
     <!-- Full-width -->
     <g transform="translate(437.18125 256.080281) scale(0.1 -0.1)">
      <use xlink:href="#DejaVuSans-46"/>
      <use xlink:href="#DejaVuSans-75" x="52.019531"/>
      <use xlink:href="#DejaVuSans-6c" x="115.398438"/>
      <use xlink:href="#DejaVuSans-6c" x="143.181641"/>
      <use xlink:href="#DejaVuSans-2d" x="170.964844"/>
      <use xlink:href="#DejaVuSans-77" x="207.048828"/>
      <use xlink:href="#DejaVuSans-69" x="288.835938"/>
      <use xlink:href="#DejaVuSans-64" x="316.619141"/>
      <use xlink:href="#DejaVuSans-74" x="380.095703"/>
      <use xlink:href="#DejaVuSans-68" x="419.304688"/>
     </g>
    </g>
    <g id="patch_33">
     <path d="M 409.18125 270.758406
L 429.18125 270.758406
L 429.18125 263.758406
L 409.18125 263.758406
z
" style="fill: #dd8452"/>
    </g>
    <g id="text_32">
     <!-- Half-width -->
     <g transform="translate(437.18125 270.758406) scale(0.1 -0.1)">
      <use xlink:href="#DejaVuSans-48"/>
      <use xlink:href="#DejaVuSans-61" x="75.195312"/>
      <use xlink:href="#DejaVuSans-6c" x="136.474609"/>
      <use xlink:href="#DejaVuSans-66" x="164.257812"/>
      <use xlink:href="#DejaVuSans-2d" x="193.962891"/>
      <use xlink:href="#DejaVuSans-77" x="230.046875"/>
      <use xlink:href="#DejaVuSans-69" x="311.833984"/>
      <use xlink:href="#DejaVuSans-64" x="339.617188"/>
      <use xlink:href="#DejaVuSans-74" x="403.09375"/>
      <use xlink:href="#DejaVuSans-68" x="442.302734"/>
     </g>
    </g>
   </g>
  </g>
  <g id="axes_3">
   <g id="patch_34">
    <path d="M 756.58125 281.838093
L 1065.26125 281.838093
L 1065.26125 51.36
L 756.58125 51.36
z
" style="fill: #ffffff"/>
   </g>
   <g id="patch_35">
    <path d="M 770.612159 281.838093
L 797.157122 281.838093
L 797.157122 140.569985
L 770.612159 140.569985
z
" clip-path="url(#pbcdcfbe5b2)" style="fill: #4c72b0"/>
   </g>
   <g id="patch_36">
    <path d="M 846.454911 281.838093
L 872.999874 281.838093
L 872.999874 166.33082
L 846.454911 166.33082
z
" clip-path="url(#pbcdcfbe5b2)" style="fill: #4c72b0"/>
   </g>
   <g id="patch_37">
    <path d="M 922.297663 281.838093
L 948.842626 281.838093
L 948.842626 170.36299
L 922.297663 170.36299
z
" clip-path="url(#pbcdcfbe5b2)" style="fill: #4c72b0"/>
   </g>
   <g id="patch_38">
    <path d="M 998.140415 281.838093
L 1024.685378 281.838093
L 1024.685378 151.53114
L 998.140415 151.53114
z
" clip-path="url(#pbcdcfbe5b2)" style="fill: #4c72b0"/>
   </g>
   <g id="patch_39">
    <path d="M 797.157122 281.838093
L 823.702085 281.838093
L 823.702085 112.748806
L 797.157122 112.748806
z
" clip-path="url(#pbcdcfbe5b2)" style="fill: #dd8452"/>
   </g>
   <g id="patch_40">
    <path d="M 872.999874 281.838093
L 899.544837 281.838093
L 899.544837 126.926188
L 872.999874 126.926188
z
" clip-path="url(#pbcdcfbe5b2)" style="fill: #dd8452"/>
   </g>
   <g id="patch_41">
    <path d="M 948.842626 281.838093
L 975.387589 281.838093
L 975.387589 138.378154
L 948.842626 138.378154
z
" clip-path="url(#pbcdcfbe5b2)" style="fill: #dd8452"/>
   </g>
   <g id="patch_42">
    <path d="M 1024.685378 281.838093
L 1051.230341 281.838093
L 1051.230341 120.086582
L 1024.685378 120.086582
z
" clip-path="url(#pbcdcfbe5b2)" style="fill: #dd8452"/>
   </g>
   <g id="matplotlib.axis_5">
    <g id="xtick_9">
     <g id="line2d_31">
      <g>
       <use xlink:href="#m0a4443e600" x="797.157122" y="281.838093" style="stroke: #000000; stroke-width: 0.8"/>
      </g>
     </g>
     <g id="text_33">
      <!-- cbdice -->
      <g transform="translate(777.525186 311.591906) rotate(-45) scale(0.08 -0.08)">
       <use xlink:href="#DejaVuSans-63"/>
       <use xlink:href="#DejaVuSans-62" x="54.980469"/>
       <use xlink:href="#DejaVuSans-64" x="118.457031"/>
       <use xlink:href="#DejaVuSans-69" x="181.933594"/>
       <use xlink:href="#DejaVuSans-63" x="209.716797"/>
       <use xlink:href="#DejaVuSans-65" x="264.697266"/>
      </g>
     </g>
    </g>
    <g id="xtick_10">
     <g id="line2d_32">
      <g>
       <use xlink:href="#m0a4443e600" x="872.999874" y="281.838093" style="stroke: #000000; stroke-width: 0.8"/>
      </g>
     </g>
     <g id="text_34">
      <!-- cbdice_cldice -->
      <g transform="translate(833.946367 330.856146) rotate(-45) scale(0.08 -0.08)">
       <use xlink:href="#DejaVuSans-63"/>
       <use xlink:href="#DejaVuSans-62" x="54.980469"/>
       <use xlink:href="#DejaVuSans-64" x="118.457031"/>
       <use xlink:href="#DejaVuSans-69" x="181.933594"/>
       <use xlink:href="#DejaVuSans-63" x="209.716797"/>
       <use xlink:href="#DejaVuSans-65" x="264.697266"/>
       <use xlink:href="#DejaVuSans-5f" x="326.220703"/>
       <use xlink:href="#DejaVuSans-63" x="376.220703"/>
       <use xlink:href="#DejaVuSans-6c" x="431.201172"/>
       <use xlink:href="#DejaVuSans-64" x="458.984375"/>
       <use xlink:href="#DejaVuSans-69" x="522.460938"/>
       <use xlink:href="#DejaVuSans-63" x="550.244141"/>
       <use xlink:href="#DejaVuSans-65" x="605.224609"/>
      </g>
     </g>
    </g>
    <g id="xtick_11">
     <g id="line2d_33">
      <g>
       <use xlink:href="#m0a4443e600" x="948.842626" y="281.838093" style="stroke: #000000; stroke-width: 0.8"/>
      </g>
     </g>
     <g id="text_35">
      <!-- dice_ce -->
      <g transform="translate(926.335417 314.309847) rotate(-45) scale(0.08 -0.08)">
       <use xlink:href="#DejaVuSans-64"/>
       <use xlink:href="#DejaVuSans-69" x="63.476562"/>
       <use xlink:href="#DejaVuSans-63" x="91.259766"/>
       <use xlink:href="#DejaVuSans-65" x="146.240234"/>
       <use xlink:href="#DejaVuSans-5f" x="207.763672"/>
       <use xlink:href="#DejaVuSans-63" x="257.763672"/>
       <use xlink:href="#DejaVuSans-65" x="312.744141"/>
      </g>
     </g>
    </g>
    <g id="xtick_12">
     <g id="line2d_34">
      <g>
       <use xlink:href="#m0a4443e600" x="1024.685378" y="281.838093" style="stroke: #000000; stroke-width: 0.8"/>
      </g>
     </g>
     <g id="text_36">
      <!-- dice_ce_cldice -->
      <g transform="translate(982.913929 333.574088) rotate(-45) scale(0.08 -0.08)">
       <use xlink:href="#DejaVuSans-64"/>
       <use xlink:href="#DejaVuSans-69" x="63.476562"/>
       <use xlink:href="#DejaVuSans-63" x="91.259766"/>
       <use xlink:href="#DejaVuSans-65" x="146.240234"/>
       <use xlink:href="#DejaVuSans-5f" x="207.763672"/>
       <use xlink:href="#DejaVuSans-63" x="257.763672"/>
       <use xlink:href="#DejaVuSans-65" x="312.744141"/>
       <use xlink:href="#DejaVuSans-5f" x="374.267578"/>
       <use xlink:href="#DejaVuSans-63" x="424.267578"/>
       <use xlink:href="#DejaVuSans-6c" x="479.248047"/>
       <use xlink:href="#DejaVuSans-64" x="507.03125"/>
       <use xlink:href="#DejaVuSans-69" x="570.507812"/>
       <use xlink:href="#DejaVuSans-63" x="598.291016"/>
       <use xlink:href="#DejaVuSans-65" x="653.271484"/>
      </g>
     </g>
    </g>
    <g id="text_37">
     <!-- Loss Function -->
     <g transform="translate(877.100156 346.506305) scale(0.1 -0.1)">
      <use xlink:href="#DejaVuSans-4c"/>
      <use xlink:href="#DejaVuSans-6f" x="53.962891"/>
      <use xlink:href="#DejaVuSans-73" x="115.144531"/>
      <use xlink:href="#DejaVuSans-73" x="167.244141"/>
      <use xlink:href="#DejaVuSans-20" x="219.34375"/>
      <use xlink:href="#DejaVuSans-46" x="251.130859"/>
      <use xlink:href="#DejaVuSans-75" x="303.150391"/>
      <use xlink:href="#DejaVuSans-6e" x="366.529297"/>
      <use xlink:href="#DejaVuSans-63" x="429.908203"/>
      <use xlink:href="#DejaVuSans-74" x="484.888672"/>
      <use xlink:href="#DejaVuSans-69" x="524.097656"/>
      <use xlink:href="#DejaVuSans-6f" x="551.880859"/>
      <use xlink:href="#DejaVuSans-6e" x="613.0625"/>
     </g>
    </g>
   </g>
   <g id="matplotlib.axis_6">
    <g id="ytick_15">
     <g id="line2d_35">
      <g>
       <use xlink:href="#m2aaf0acfdf" x="756.58125" y="281.838093" style="stroke: #000000; stroke-width: 0.8"/>
      </g>
     </g>
     <g id="text_38">
      <!-- 0.0 -->
      <g transform="translate(733.678125 285.637312) scale(0.1 -0.1)">
       <use xlink:href="#DejaVuSans-30"/>
       <use xlink:href="#DejaVuSans-2e" x="63.623047"/>
       <use xlink:href="#DejaVuSans-30" x="95.410156"/>
      </g>
     </g>
    </g>
    <g id="ytick_16">
     <g id="line2d_36">
      <g>
       <use xlink:href="#m2aaf0acfdf" x="756.58125" y="248.596992" style="stroke: #000000; stroke-width: 0.8"/>
      </g>
     </g>
     <g id="text_39">
      <!-- 0.5 -->
      <g transform="translate(733.678125 252.39621) scale(0.1 -0.1)">
       <use xlink:href="#DejaVuSans-30"/>
       <use xlink:href="#DejaVuSans-2e" x="63.623047"/>
       <use xlink:href="#DejaVuSans-35" x="95.410156"/>
      </g>
     </g>
    </g>
    <g id="ytick_17">
     <g id="line2d_37">
      <g>
       <use xlink:href="#m2aaf0acfdf" x="756.58125" y="215.35589" style="stroke: #000000; stroke-width: 0.8"/>
      </g>
     </g>
     <g id="text_40">
      <!-- 1.0 -->
      <g transform="translate(733.678125 219.155108) scale(0.1 -0.1)">
       <use xlink:href="#DejaVuSans-31"/>
       <use xlink:href="#DejaVuSans-2e" x="63.623047"/>
       <use xlink:href="#DejaVuSans-30" x="95.410156"/>
      </g>
     </g>
    </g>
    <g id="ytick_18">
     <g id="line2d_38">
      <g>
       <use xlink:href="#m2aaf0acfdf" x="756.58125" y="182.114788" style="stroke: #000000; stroke-width: 0.8"/>
      </g>
     </g>
     <g id="text_41">
      <!-- 1.5 -->
      <g transform="translate(733.678125 185.914007) scale(0.1 -0.1)">
       <use xlink:href="#DejaVuSans-31"/>
       <use xlink:href="#DejaVuSans-2e" x="63.623047"/>
       <use xlink:href="#DejaVuSans-35" x="95.410156"/>
      </g>
     </g>
    </g>
    <g id="ytick_19">
     <g id="line2d_39">
      <g>
       <use xlink:href="#m2aaf0acfdf" x="756.58125" y="148.873686" style="stroke: #000000; stroke-width: 0.8"/>
      </g>
     </g>
     <g id="text_42">
      <!-- 2.0 -->
      <g transform="translate(733.678125 152.672905) scale(0.1 -0.1)">
       <use xlink:href="#DejaVuSans-32"/>
       <use xlink:href="#DejaVuSans-2e" x="63.623047"/>
       <use xlink:href="#DejaVuSans-30" x="95.410156"/>
      </g>
     </g>
    </g>
    <g id="ytick_20">
     <g id="line2d_40">
      <g>
       <use xlink:href="#m2aaf0acfdf" x="756.58125" y="115.632584" style="stroke: #000000; stroke-width: 0.8"/>
      </g>
     </g>
     <g id="text_43">
      <!-- 2.5 -->
      <g transform="translate(733.678125 119.431803) scale(0.1 -0.1)">
       <use xlink:href="#DejaVuSans-32"/>
       <use xlink:href="#DejaVuSans-2e" x="63.623047"/>
       <use xlink:href="#DejaVuSans-35" x="95.410156"/>
      </g>
     </g>
    </g>
    <g id="ytick_21">
     <g id="line2d_41">
      <g>
       <use xlink:href="#m2aaf0acfdf" x="756.58125" y="82.391482" style="stroke: #000000; stroke-width: 0.8"/>
      </g>
     </g>
     <g id="text_44">
      <!-- 3.0 -->
      <g transform="translate(733.678125 86.190701) scale(0.1 -0.1)">
       <use xlink:href="#DejaVuSans-33"/>
       <use xlink:href="#DejaVuSans-2e" x="63.623047"/>
       <use xlink:href="#DejaVuSans-30" x="95.410156"/>
      </g>
     </g>
    </g>
    <g id="text_45">
     <!-- MASD -->
     <g transform="translate(727.598438 181.35764) rotate(-90) scale(0.1 -0.1)">
      <defs>
       <path id="DejaVuSans-4d" d="M 628 4666
L 1569 4666
L 2759 1491
L 3956 4666
L 4897 4666
L 4897 0
L 4281 0
L 4281 4097
L 3078 897
L 2444 897
L 1241 4097
L 1241 0
L 628 0
L 628 4666
z
" transform="scale(0.015625)"/>
       <path id="DejaVuSans-41" d="M 2188 4044
L 1331 1722
L 3047 1722
L 2188 4044
z
M 1831 4666
L 2547 4666
L 4325 0
L 3669 0
L 3244 1197
L 1141 1197
L 716 0
L 50 0
L 1831 4666
z
" transform="scale(0.015625)"/>
      </defs>
      <use xlink:href="#DejaVuSans-4d"/>
      <use xlink:href="#DejaVuSans-41" x="86.279297"/>
      <use xlink:href="#DejaVuSans-53" x="154.6875"/>
      <use xlink:href="#DejaVuSans-44" x="218.164062"/>
     </g>
    </g>
   </g>
   <g id="LineCollection_5">
    <path d="M 783.884641 184.235504
L 783.884641 96.904467
" clip-path="url(#pbcdcfbe5b2)" style="fill: none; stroke: #000000; stroke-width: 1.5"/>
    <path d="M 859.727393 200.859688
L 859.727393 131.801952
" clip-path="url(#pbcdcfbe5b2)" style="fill: none; stroke: #000000; stroke-width: 1.5"/>
    <path d="M 935.570144 197.759259
L 935.570144 142.966722
" clip-path="url(#pbcdcfbe5b2)" style="fill: none; stroke: #000000; stroke-width: 1.5"/>
    <path d="M 1011.412896 186.898731
L 1011.412896 116.163549
" clip-path="url(#pbcdcfbe5b2)" style="fill: none; stroke: #000000; stroke-width: 1.5"/>
   </g>
   <g id="line2d_42">
    <g clip-path="url(#pbcdcfbe5b2)">
     <use xlink:href="#mf7d6e18672" x="783.884641" y="184.235504" style="stroke: #000000"/>
     <use xlink:href="#mf7d6e18672" x="859.727393" y="200.859688" style="stroke: #000000"/>
     <use xlink:href="#mf7d6e18672" x="935.570144" y="197.759259" style="stroke: #000000"/>
     <use xlink:href="#mf7d6e18672" x="1011.412896" y="186.898731" style="stroke: #000000"/>
    </g>
   </g>
   <g id="line2d_43">
    <g clip-path="url(#pbcdcfbe5b2)">
     <use xlink:href="#mf7d6e18672" x="783.884641" y="96.904467" style="stroke: #000000"/>
     <use xlink:href="#mf7d6e18672" x="859.727393" y="131.801952" style="stroke: #000000"/>
     <use xlink:href="#mf7d6e18672" x="935.570144" y="142.966722" style="stroke: #000000"/>
     <use xlink:href="#mf7d6e18672" x="1011.412896" y="116.163549" style="stroke: #000000"/>
    </g>
   </g>
   <g id="LineCollection_6">
    <path d="M 810.429604 163.162465
L 810.429604 62.335147
" clip-path="url(#pbcdcfbe5b2)" style="fill: none; stroke: #000000; stroke-width: 1.5"/>
    <path d="M 886.272356 164.85595
L 886.272356 88.996427
" clip-path="url(#pbcdcfbe5b2)" style="fill: none; stroke: #000000; stroke-width: 1.5"/>
    <path d="M 962.115107 181.193127
L 962.115107 95.563181
" clip-path="url(#pbcdcfbe5b2)" style="fill: none; stroke: #000000; stroke-width: 1.5"/>
    <path d="M 1037.957859 158.985176
L 1037.957859 81.187988
" clip-path="url(#pbcdcfbe5b2)" style="fill: none; stroke: #000000; stroke-width: 1.5"/>
   </g>
   <g id="line2d_44">
    <g clip-path="url(#pbcdcfbe5b2)">
     <use xlink:href="#mf7d6e18672" x="810.429604" y="163.162465" style="stroke: #000000"/>
     <use xlink:href="#mf7d6e18672" x="886.272356" y="164.85595" style="stroke: #000000"/>
     <use xlink:href="#mf7d6e18672" x="962.115107" y="181.193127" style="stroke: #000000"/>
     <use xlink:href="#mf7d6e18672" x="1037.957859" y="158.985176" style="stroke: #000000"/>
    </g>
   </g>
   <g id="line2d_45">
    <g clip-path="url(#pbcdcfbe5b2)">
     <use xlink:href="#mf7d6e18672" x="810.429604" y="62.335147" style="stroke: #000000"/>
     <use xlink:href="#mf7d6e18672" x="886.272356" y="88.996427" style="stroke: #000000"/>
     <use xlink:href="#mf7d6e18672" x="962.115107" y="95.563181" style="stroke: #000000"/>
     <use xlink:href="#mf7d6e18672" x="1037.957859" y="81.187988" style="stroke: #000000"/>
    </g>
   </g>
   <g id="patch_43">
    <path d="M 756.58125 281.838093
L 756.58125 51.36
" style="fill: none; stroke: #000000; stroke-width: 0.8; stroke-linejoin: miter; stroke-linecap: square"/>
   </g>
   <g id="patch_44">
    <path d="M 1065.26125 281.838093
L 1065.26125 51.36
" style="fill: none; stroke: #000000; stroke-width: 0.8; stroke-linejoin: miter; stroke-linecap: square"/>
   </g>
   <g id="patch_45">
    <path d="M 756.58125 281.838093
L 1065.26125 281.838093
" style="fill: none; stroke: #000000; stroke-width: 0.8; stroke-linejoin: miter; stroke-linecap: square"/>
   </g>
   <g id="patch_46">
    <path d="M 756.58125 51.36
L 1065.26125 51.36
" style="fill: none; stroke: #000000; stroke-width: 0.8; stroke-linejoin: miter; stroke-linecap: square"/>
   </g>
   <g id="text_46">
    <!-- MASD -->
    <g transform="translate(893.210938 45.36) scale(0.12 -0.12)">
     <use xlink:href="#DejaVuSans-4d"/>
     <use xlink:href="#DejaVuSans-41" x="86.279297"/>
     <use xlink:href="#DejaVuSans-53" x="154.6875"/>
     <use xlink:href="#DejaVuSans-44" x="218.164062"/>
    </g>
   </g>
   <g id="legend_3">
    <g id="patch_47">
     <path d="M 869.637656 88.71625
L 952.204844 88.71625
Q 954.204844 88.71625 954.204844 86.71625
L 954.204844 58.36
Q 954.204844 56.36 952.204844 56.36
L 869.637656 56.36
Q 867.637656 56.36 867.637656 58.36
L 867.637656 86.71625
Q 867.637656 88.71625 869.637656 88.71625
z
" style="fill: #ffffff; opacity: 0.8; stroke: #cccccc; stroke-linejoin: miter"/>
    </g>
    <g id="patch_48">
     <path d="M 871.637656 67.958437
L 891.637656 67.958437
L 891.637656 60.958437
L 871.637656 60.958437
z
" style="fill: #4c72b0"/>
    </g>
    <g id="text_47">
     <!-- Full-width -->
     <g transform="translate(899.637656 67.958437) scale(0.1 -0.1)">
      <use xlink:href="#DejaVuSans-46"/>
      <use xlink:href="#DejaVuSans-75" x="52.019531"/>
      <use xlink:href="#DejaVuSans-6c" x="115.398438"/>
      <use xlink:href="#DejaVuSans-6c" x="143.181641"/>
      <use xlink:href="#DejaVuSans-2d" x="170.964844"/>
      <use xlink:href="#DejaVuSans-77" x="207.048828"/>
      <use xlink:href="#DejaVuSans-69" x="288.835938"/>
      <use xlink:href="#DejaVuSans-64" x="316.619141"/>
      <use xlink:href="#DejaVuSans-74" x="380.095703"/>
      <use xlink:href="#DejaVuSans-68" x="419.304688"/>
     </g>
    </g>
    <g id="patch_49">
     <path d="M 871.637656 82.636562
L 891.637656 82.636562
L 891.637656 75.636562
L 871.637656 75.636562
z
" style="fill: #dd8452"/>
    </g>
    <g id="text_48">
     <!-- Half-width -->
     <g transform="translate(899.637656 82.636562) scale(0.1 -0.1)">
      <use xlink:href="#DejaVuSans-48"/>
      <use xlink:href="#DejaVuSans-61" x="75.195312"/>
      <use xlink:href="#DejaVuSans-6c" x="136.474609"/>
      <use xlink:href="#DejaVuSans-66" x="164.257812"/>
      <use xlink:href="#DejaVuSans-2d" x="193.962891"/>
      <use xlink:href="#DejaVuSans-77" x="230.046875"/>
      <use xlink:href="#DejaVuSans-69" x="311.833984"/>
      <use xlink:href="#DejaVuSans-64" x="339.617188"/>
      <use xlink:href="#DejaVuSans-74" x="403.09375"/>
      <use xlink:href="#DejaVuSans-68" x="442.302734"/>
     </g>
    </g>
   </g>
  </g>
  <g id="text_49">
   <!-- Full-width vs Half-width DynUNet -->
   <g transform="translate(404.686562 17.837812) scale(0.14 -0.14)">
    <defs>
     <path id="DejaVuSans-Bold-46" d="M 588 4666
L 3834 4666
L 3834 3756
L 1791 3756
L 1791 2888
L 3713 2888
L 3713 1978
L 1791 1978
L 1791 0
L 588 0
L 588 4666
z
" transform="scale(0.015625)"/>
     <path id="DejaVuSans-Bold-75" d="M 500 1363
L 500 3500
L 1625 3500
L 1625 3150
Q 1625 2866 1622 2436
Q 1619 2006 1619 1863
Q 1619 1441 1641 1255
Q 1663 1069 1716 984
Q 1784 875 1895 815
Q 2006 756 2150 756
Q 2500 756 2700 1025
Q 2900 1294 2900 1772
L 2900 3500
L 4019 3500
L 4019 0
L 2900 0
L 2900 506
Q 2647 200 2364 54
Q 2081 -91 1741 -91
Q 1134 -91 817 281
Q 500 653 500 1363
z
" transform="scale(0.015625)"/>
     <path id="DejaVuSans-Bold-6c" d="M 538 4863
L 1656 4863
L 1656 0
L 538 0
L 538 4863
z
" transform="scale(0.015625)"/>
     <path id="DejaVuSans-Bold-2d" d="M 347 2297
L 2309 2297
L 2309 1388
L 347 1388
L 347 2297
z
" transform="scale(0.015625)"/>
     <path id="DejaVuSans-Bold-77" d="M 225 3500
L 1313 3500
L 1900 1088
L 2491 3500
L 3425 3500
L 4013 1113
L 4603 3500
L 5691 3500
L 4769 0
L 3547 0
L 2956 2406
L 2369 0
L 1147 0
L 225 3500
z
" transform="scale(0.015625)"/>
     <path id="DejaVuSans-Bold-69" d="M 538 3500
L 1656 3500
L 1656 0
L 538 0
L 538 3500
z
M 538 4863
L 1656 4863
L 1656 3950
L 538 3950
L 538 4863
z
" transform="scale(0.015625)"/>
     <path id="DejaVuSans-Bold-64" d="M 2919 2988
L 2919 4863
L 4044 4863
L 4044 0
L 2919 0
L 2919 506
Q 2688 197 2409 53
Q 2131 -91 1766 -91
Q 1119 -91 703 423
Q 288 938 288 1747
Q 288 2556 703 3070
Q 1119 3584 1766 3584
Q 2128 3584 2408 3439
Q 2688 3294 2919 2988
z
M 2181 722
Q 2541 722 2730 984
Q 2919 1247 2919 1747
Q 2919 2247 2730 2509
Q 2541 2772 2181 2772
Q 1825 2772 1636 2509
Q 1447 2247 1447 1747
Q 1447 1247 1636 984
Q 1825 722 2181 722
z
" transform="scale(0.015625)"/>
     <path id="DejaVuSans-Bold-74" d="M 1759 4494
L 1759 3500
L 2913 3500
L 2913 2700
L 1759 2700
L 1759 1216
Q 1759 972 1856 886
Q 1953 800 2241 800
L 2816 800
L 2816 0
L 1856 0
Q 1194 0 917 276
Q 641 553 641 1216
L 641 2700
L 84 2700
L 84 3500
L 641 3500
L 641 4494
L 1759 4494
z
" transform="scale(0.015625)"/>
     <path id="DejaVuSans-Bold-68" d="M 4056 2131
L 4056 0
L 2931 0
L 2931 347
L 2931 1625
Q 2931 2084 2911 2256
Q 2891 2428 2841 2509
Q 2775 2619 2662 2680
Q 2550 2741 2406 2741
Q 2056 2741 1856 2470
Q 1656 2200 1656 1722
L 1656 0
L 538 0
L 538 4863
L 1656 4863
L 1656 2988
Q 1909 3294 2193 3439
Q 2478 3584 2822 3584
Q 3428 3584 3742 3212
Q 4056 2841 4056 2131
z
" transform="scale(0.015625)"/>
     <path id="DejaVuSans-Bold-20" transform="scale(0.015625)"/>
     <path id="DejaVuSans-Bold-76" d="M 97 3500
L 1216 3500
L 2088 1081
L 2956 3500
L 4078 3500
L 2700 0
L 1472 0
L 97 3500
z
" transform="scale(0.015625)"/>
     <path id="DejaVuSans-Bold-73" d="M 3272 3391
L 3272 2541
Q 2913 2691 2578 2766
Q 2244 2841 1947 2841
Q 1628 2841 1473 2761
Q 1319 2681 1319 2516
Q 1319 2381 1436 2309
Q 1553 2238 1856 2203
L 2053 2175
Q 2913 2066 3209 1816
Q 3506 1566 3506 1031
Q 3506 472 3093 190
Q 2681 -91 1863 -91
Q 1516 -91 1145 -36
Q 775 19 384 128
L 384 978
Q 719 816 1070 734
Q 1422 653 1784 653
Q 2113 653 2278 743
Q 2444 834 2444 1013
Q 2444 1163 2330 1236
Q 2216 1309 1875 1350
L 1678 1375
Q 931 1469 631 1722
Q 331 1975 331 2491
Q 331 3047 712 3315
Q 1094 3584 1881 3584
Q 2191 3584 2531 3537
Q 2872 3491 3272 3391
z
" transform="scale(0.015625)"/>
     <path id="DejaVuSans-Bold-48" d="M 588 4666
L 1791 4666
L 1791 2888
L 3566 2888
L 3566 4666
L 4769 4666
L 4769 0
L 3566 0
L 3566 1978
L 1791 1978
L 1791 0
L 588 0
L 588 4666
z
" transform="scale(0.015625)"/>
     <path id="DejaVuSans-Bold-61" d="M 2106 1575
Q 1756 1575 1579 1456
Q 1403 1338 1403 1106
Q 1403 894 1545 773
Q 1688 653 1941 653
Q 2256 653 2472 879
Q 2688 1106 2688 1447
L 2688 1575
L 2106 1575
z
M 3816 1997
L 3816 0
L 2688 0
L 2688 519
Q 2463 200 2181 54
Q 1900 -91 1497 -91
Q 953 -91 614 226
Q 275 544 275 1050
Q 275 1666 698 1953
Q 1122 2241 2028 2241
L 2688 2241
L 2688 2328
Q 2688 2594 2478 2717
Q 2269 2841 1825 2841
Q 1466 2841 1156 2769
Q 847 2697 581 2553
L 581 3406
Q 941 3494 1303 3539
Q 1666 3584 2028 3584
Q 2975 3584 3395 3211
Q 3816 2838 3816 1997
z
" transform="scale(0.015625)"/>
     <path id="DejaVuSans-Bold-66" d="M 2841 4863
L 2841 4128
L 2222 4128
Q 1984 4128 1890 4042
Q 1797 3956 1797 3744
L 1797 3500
L 2753 3500
L 2753 2700
L 1797 2700
L 1797 0
L 678 0
L 678 2700
L 122 2700
L 122 3500
L 678 3500
L 678 3744
Q 678 4316 997 4589
Q 1316 4863 1984 4863
L 2841 4863
z
" transform="scale(0.015625)"/>
     <path id="DejaVuSans-Bold-44" d="M 1791 3756
L 1791 909
L 2222 909
Q 2959 909 3348 1275
Q 3738 1641 3738 2338
Q 3738 3031 3350 3393
Q 2963 3756 2222 3756
L 1791 3756
z
M 588 4666
L 1856 4666
Q 2919 4666 3439 4514
Q 3959 4363 4331 4000
Q 4659 3684 4818 3271
Q 4978 2859 4978 2338
Q 4978 1809 4818 1395
Q 4659 981 4331 666
Q 3956 303 3431 151
Q 2906 0 1856 0
L 588 0
L 588 4666
z
" transform="scale(0.015625)"/>
     <path id="DejaVuSans-Bold-79" d="M 78 3500
L 1197 3500
L 2138 1125
L 2938 3500
L 4056 3500
L 2584 -331
Q 2363 -916 2067 -1148
Q 1772 -1381 1288 -1381
L 641 -1381
L 641 -647
L 991 -647
Q 1275 -647 1404 -556
Q 1534 -466 1606 -231
L 1638 -134
L 78 3500
z
" transform="scale(0.015625)"/>
     <path id="DejaVuSans-Bold-6e" d="M 4056 2131
L 4056 0
L 2931 0
L 2931 347
L 2931 1631
Q 2931 2084 2911 2256
Q 2891 2428 2841 2509
Q 2775 2619 2662 2680
Q 2550 2741 2406 2741
Q 2056 2741 1856 2470
Q 1656 2200 1656 1722
L 1656 0
L 538 0
L 538 3500
L 1656 3500
L 1656 2988
Q 1909 3294 2193 3439
Q 2478 3584 2822 3584
Q 3428 3584 3742 3212
Q 4056 2841 4056 2131
z
" transform="scale(0.015625)"/>
     <path id="DejaVuSans-Bold-55" d="M 588 4666
L 1791 4666
L 1791 1869
Q 1791 1291 1980 1042
Q 2169 794 2597 794
Q 3028 794 3217 1042
Q 3406 1291 3406 1869
L 3406 4666
L 4609 4666
L 4609 1869
Q 4609 878 4112 393
Q 3616 -91 2597 -91
Q 1581 -91 1084 393
Q 588 878 588 1869
L 588 4666
z
" transform="scale(0.015625)"/>
     <path id="DejaVuSans-Bold-4e" d="M 588 4666
L 1931 4666
L 3628 1466
L 3628 4666
L 4769 4666
L 4769 0
L 3425 0
L 1728 3200
L 1728 0
L 588 0
L 588 4666
z
" transform="scale(0.015625)"/>
     <path id="DejaVuSans-Bold-65" d="M 4031 1759
L 4031 1441
L 1416 1441
Q 1456 1047 1700 850
Q 1944 653 2381 653
Q 2734 653 3104 758
Q 3475 863 3866 1075
L 3866 213
Q 3469 63 3072 -14
Q 2675 -91 2278 -91
Q 1328 -91 801 392
Q 275 875 275 1747
Q 275 2603 792 3093
Q 1309 3584 2216 3584
Q 3041 3584 3536 3087
Q 4031 2591 4031 1759
z
M 2881 2131
Q 2881 2450 2695 2645
Q 2509 2841 2209 2841
Q 1884 2841 1681 2658
Q 1478 2475 1428 2131
L 2881 2131
z
" transform="scale(0.015625)"/>
    </defs>
    <use xlink:href="#DejaVuSans-Bold-46"/>
    <use xlink:href="#DejaVuSans-Bold-75" x="63.310547"/>
    <use xlink:href="#DejaVuSans-Bold-6c" x="134.501953"/>
    <use xlink:href="#DejaVuSans-Bold-6c" x="168.779297"/>
    <use xlink:href="#DejaVuSans-Bold-2d" x="203.056641"/>
    <use xlink:href="#DejaVuSans-Bold-77" x="244.560547"/>
    <use xlink:href="#DejaVuSans-Bold-69" x="336.943359"/>
    <use xlink:href="#DejaVuSans-Bold-64" x="371.220703"/>
    <use xlink:href="#DejaVuSans-Bold-74" x="442.802734"/>
    <use xlink:href="#DejaVuSans-Bold-68" x="490.605469"/>
    <use xlink:href="#DejaVuSans-Bold-20" x="561.796875"/>
    <use xlink:href="#DejaVuSans-Bold-76" x="596.611328"/>
    <use xlink:href="#DejaVuSans-Bold-73" x="661.796875"/>
    <use xlink:href="#DejaVuSans-Bold-20" x="721.318359"/>
    <use xlink:href="#DejaVuSans-Bold-48" x="756.132812"/>
    <use xlink:href="#DejaVuSans-Bold-61" x="839.824219"/>
    <use xlink:href="#DejaVuSans-Bold-6c" x="907.304688"/>
    <use xlink:href="#DejaVuSans-Bold-66" x="941.582031"/>
    <use xlink:href="#DejaVuSans-Bold-2d" x="983.337891"/>
    <use xlink:href="#DejaVuSans-Bold-77" x="1024.841797"/>
    <use xlink:href="#DejaVuSans-Bold-69" x="1117.224609"/>
    <use xlink:href="#DejaVuSans-Bold-64" x="1151.501953"/>
    <use xlink:href="#DejaVuSans-Bold-74" x="1223.083984"/>
    <use xlink:href="#DejaVuSans-Bold-68" x="1270.886719"/>
    <use xlink:href="#DejaVuSans-Bold-20" x="1342.078125"/>
    <use xlink:href="#DejaVuSans-Bold-44" x="1376.892578"/>
    <use xlink:href="#DejaVuSans-Bold-79" x="1459.900391"/>
    <use xlink:href="#DejaVuSans-Bold-6e" x="1525.085938"/>
    <use xlink:href="#DejaVuSans-Bold-55" x="1596.277344"/>
    <use xlink:href="#DejaVuSans-Bold-4e" x="1677.478516"/>
    <use xlink:href="#DejaVuSans-Bold-65" x="1761.169922"/>
    <use xlink:href="#DejaVuSans-Bold-74" x="1828.992188"/>
   </g>
  </g>
 </g>
 <defs>
  <clipPath id="p3a0d749510">
   <rect x="43.78125" y="51.36" width="308.68" height="230.478093"/>
  </clipPath>
  <clipPath id="p497facd5bc">
   <rect x="400.18125" y="51.36" width="308.68" height="230.478093"/>
  </clipPath>
  <clipPath id="pbcdcfbe5b2">
   <rect x="756.58125" y="51.36" width="308.68" height="230.478093"/>
  </clipPath>
 </defs>
</svg>
